<svg xmlns="http://www.w3.org/2000/svg" width="20" height="20" viewBox="0 0 20 20">
    <defs>
        <style>.a,.b{fill:#z;}.a{opacity:0;}</style>
    </defs>
    <g transform="translate(-133 -443)"><rect class="a" width="20" height="20" transform="translate(133 443)"/>
        <path class="b" d="M932.725,1461.221c-1.98,0-8,0-8-3.552,0-3.166,4.566-3.532,8-3.532,1.978,0,8,0,8,3.552C940.724,1460.854,936.159,1461.221,932.725,1461.221Zm0-6.054c-4.681,0-6.958.818-6.958,2.5s2.341,2.522,6.958,2.522c4.681,0,6.956-.818,6.956-2.5S937.341,1455.167,932.725,1455.167Zm0-3.442h-.033a5.332,5.332,0,1,1,.033,0Zm0-9.473a4.222,4.222,0,1,0-.031,8.443h.031a4.222,4.222,0,1,0,0-8.443Z" transform="translate(-789.724 -998.221)"/></g></svg>